<svg xmlns="http://www.w3.org/2000/svg" width="585" height="462" style="width:100%;height:100%;transform:translate3d(0,0,0);content-visibility:visible"><defs><clipPath id="a"><path d="M0 0h585v462H0z"/></clipPath></defs><g font-size="22" font-family="Shne" aria-label="M M M M M M M M M M M M M M M M M M M M M M M M M M M M M M M M M M M M M M M M M M M M M M M M M M M M M M M M M M M M M M M M M M M M M M M M M M M M M M M M M M M M M M M M M M M M M M M M M M M M M M M M M M M M M M M M M M M M M M M M M M M M M M M M M M M M M M M M M M M M M M M M M M M M M M M M M M M M M M M M M M M M M M M M M M M M M M M M M M M M M M M M M M M M M M M M M M M M M M M M M M M M M M M M M M M M M M M M M M M M M M M M M M M M M M M M M M M M M M M M M M M M M M M M M M M M M M M M M M M M M M M M M M M M M M M M M M" style="display:block" stroke-linejoin="round" clip-path="url(#a)"><g style="display:inherit"><g style="display:block"><path d="m295.938 44.296 4.875-13.094v13.094h1.972V28.388h-2.814l-4.852 13.072-4.83-13.072h-2.903v15.908h1.994V31.202l4.853 13.094h1.705z"/></g></g><g style="display:inherit"><g style="display:block"><path d="m482.322 44.296 4.875-13.094v13.094h1.972V28.388h-2.814l-4.852 13.072-4.83-13.072h-2.903v15.908h1.994V31.202l4.852 13.094h1.706z"/></g></g><g style="display:inherit"><g style="display:block"><path d="m575.514 44.296 4.875-13.094v13.094h1.972V28.388h-2.814l-4.852 13.072-4.83-13.072h-2.903v15.908h1.994V31.202l4.853 13.094h1.705z"/></g></g><g style="display:inherit"><g style="display:block"><path d="m109.554 71.696 4.875-13.094v13.094h1.972V55.788h-2.814l-4.852 13.072-4.83-13.072h-2.903v15.908h1.994V58.602l4.852 13.094h1.706z"/></g></g><g style="display:inherit"><g style="display:block"><path d="m132.852 71.696 4.875-13.094v13.094h1.972V55.788h-2.814l-4.852 13.072-4.83-13.072H124.3v15.908h1.994V58.602l4.853 13.094h1.705z"/></g></g><g style="display:inherit"><g style="display:block"><path d="m319.236 71.696 4.875-13.094v13.094h1.972V55.788h-2.814l-4.852 13.072-4.83-13.072h-2.903v15.908h1.994V58.602l4.852 13.094h1.706z"/></g></g><g style="display:inherit"><g style="display:block"><path d="m342.534 71.696 4.875-13.094v13.094h1.972V55.788h-2.814l-4.852 13.072-4.83-13.072h-2.903v15.908h1.994V58.602l4.853 13.094h1.705z"/></g></g><g style="display:inherit"><g style="display:block"><path d="m365.832 71.696 4.875-13.094v13.094h1.972V55.788h-2.814l-4.852 13.072-4.83-13.072h-2.903v15.908h1.994V58.602l4.853 13.094h1.705z"/></g></g><g style="display:inherit"><g style="display:block"><path d="m389.13 71.696 4.875-13.094v13.094h1.972V55.788h-2.814L388.31 68.86l-4.83-13.072h-2.903v15.908h1.994V58.602l4.852 13.094h1.706z"/></g></g><g style="display:inherit"><g style="display:block"><path d="m412.428 71.696 4.875-13.094v13.094h1.972V55.788h-2.814l-4.852 13.072-4.83-13.072h-2.903v15.908h1.994V58.602l4.852 13.094h1.706z"/></g></g><g style="display:inherit"><g style="display:block"><path d="m459.024 71.696 4.875-13.094v13.094h1.972V55.788h-2.814l-4.852 13.072-4.83-13.072h-2.903v15.908h1.994V58.602l4.853 13.094h1.705z"/></g></g><g style="display:inherit"><g style="display:block"><path d="m16.362 98.096 4.875-13.094v13.094h1.972V82.188h-2.814L15.543 95.26l-4.83-13.072H7.81v15.908h1.994V85.002l4.852 13.094h1.706z"/></g></g><g style="display:inherit"><g style="display:block"><path d="m62.958 98.096 4.875-13.094v13.094h1.972V82.188H66.99L62.139 95.26l-4.83-13.072h-2.903v15.908H56.4V85.002l4.852 13.094h1.706z"/></g></g><g style="display:inherit"><g style="display:block"><path d="m109.554 98.096 4.875-13.094v13.094h1.972V82.188h-2.814l-4.852 13.072-4.83-13.072h-2.903v15.908h1.994V85.002l4.852 13.094h1.706z"/></g></g><g style="display:inherit"><g style="display:block" opacity=".685"><path d="m272.64 98.096 4.875-13.094v13.094h1.972V82.188h-2.814L271.82 95.26l-4.83-13.072h-2.903v15.908h1.994V85.002l4.853 13.094h1.705z"/></g></g><g style="display:inherit"><g style="display:block"><path d="m342.534 98.096 4.875-13.094v13.094h1.972V82.188h-2.814l-4.852 13.072-4.83-13.072h-2.903v15.908h1.994V85.002l4.853 13.094h1.705z"/></g></g><g style="display:inherit"><g style="display:block"><path d="m412.428 98.096 4.875-13.094v13.094h1.972V82.188h-2.814l-4.852 13.072-4.83-13.072h-2.903v15.908h1.994V85.002l4.852 13.094h1.706z"/></g></g><g style="display:inherit"><g style="display:block"><path d="m575.514 98.096 4.875-13.094v13.094h1.972V82.188h-2.814l-4.852 13.072-4.83-13.072h-2.903v15.908h1.994V85.002l4.853 13.094h1.705z"/></g></g><g style="display:inherit"><g style="display:block"><path d="m319.236 124.496 4.875-13.094v13.094h1.972v-15.908h-2.814l-4.852 13.072-4.83-13.072h-2.903v15.908h1.994v-13.094l4.853 13.094h1.705z"/></g></g><g style="display:inherit"><g style="display:block"><path d="m365.832 124.496 4.875-13.094v13.094h1.972v-15.908h-2.814l-4.852 13.072-4.83-13.072h-2.903v15.908h1.994v-13.094l4.852 13.094h1.706z"/></g></g><g style="display:inherit"><g style="display:block"><path d="m459.024 124.496 4.875-13.094v13.094h1.972v-15.908h-2.814l-4.852 13.072-4.83-13.072h-2.903v15.908h1.994v-13.094l4.853 13.094h1.705z"/></g></g><g style="display:inherit"><g style="display:block"><path d="m179.448 150.896 4.875-13.094v13.094h1.972v-15.908h-2.814l-4.852 13.072-4.83-13.072h-2.903v15.908h1.994v-13.094l4.853 13.094h1.705z"/></g></g><g style="display:inherit"><g style="display:block"><path d="m226.044 150.896 4.875-13.094v13.094h1.972v-15.908h-2.814l-4.852 13.072-4.83-13.072h-2.903v15.908h1.994v-13.094l4.852 13.094h1.706z"/></g></g><g style="display:inherit"><g style="display:block"><path d="m365.832 150.896 4.875-13.094v13.094h1.972v-15.908h-2.814l-4.852 13.072-4.83-13.072h-2.903v15.908h1.994v-13.094l4.852 13.094h1.706z"/></g></g><g style="display:inherit"><g style="display:block"><path d="m389.13 150.896 4.875-13.094v13.094h1.972v-15.908h-2.814l-4.852 13.072-4.83-13.072h-2.903v15.908h1.994v-13.094l4.853 13.094h1.705z"/></g></g><g style="display:inherit"><g style="display:block"><path d="m412.428 150.896 4.875-13.094v13.094h1.972v-15.908h-2.814l-4.852 13.072-4.83-13.072h-2.903v15.908h1.994v-13.094l4.853 13.094h1.705z"/></g></g><g style="display:inherit"><g style="display:block"><path d="m435.726 150.896 4.875-13.094v13.094h1.972v-15.908h-2.814l-4.852 13.072-4.83-13.072h-2.903v15.908h1.994v-13.094l4.852 13.094h1.706z"/></g></g><g style="display:inherit"><g style="display:block"><path d="m109.554 177.296 4.875-13.094v13.094h1.972v-15.908h-2.814l-4.852 13.072-4.83-13.072h-2.903v15.908h1.994v-13.094l4.852 13.094h1.706z"/></g></g><g style="display:inherit"><g style="display:block"><path d="m132.852 177.296 4.875-13.094v13.094h1.972v-15.908h-2.814l-4.852 13.072-4.83-13.072H124.3v15.908h1.994v-13.094l4.853 13.094h1.705z"/></g></g><g style="display:inherit"><g style="display:block"><path d="m179.448 177.296 4.875-13.094v13.094h1.972v-15.908h-2.814l-4.852 13.072-4.83-13.072h-2.903v15.908h1.994v-13.094l4.852 13.094h1.706z"/></g></g><g style="display:inherit"><g style="display:block"><path d="m226.044 177.296 4.875-13.094v13.094h1.972v-15.908h-2.814l-4.852 13.072-4.83-13.072h-2.903v15.908h1.994v-13.094l4.852 13.094h1.706z"/></g></g><g style="display:inherit"><g style="display:block"><path d="m272.64 177.296 4.875-13.094v13.094h1.972v-15.908h-2.814l-4.852 13.072-4.83-13.072h-2.903v15.908h1.994v-13.094l4.853 13.094h1.705z"/></g></g><g style="display:inherit"><g style="display:block"><path d="m342.534 177.296 4.875-13.094v13.094h1.972v-15.908h-2.814l-4.852 13.072-4.83-13.072h-2.903v15.908h1.994v-13.094l4.853 13.094h1.705z"/></g></g><g style="display:inherit"><g style="display:block"><path d="m389.13 177.296 4.875-13.094v13.094h1.972v-15.908h-2.814l-4.852 13.072-4.83-13.072h-2.903v15.908h1.994v-13.094l4.852 13.094h1.706z"/></g></g><g style="display:inherit"><g style="display:block"><path d="m412.428 177.296 4.875-13.094v13.094h1.972v-15.908h-2.814l-4.852 13.072-4.83-13.072h-2.903v15.908h1.994v-13.094l4.852 13.094h1.706z"/></g></g><g style="display:inherit"><g style="display:block"><path d="m435.726 177.296 4.875-13.094v13.094h1.972v-15.908h-2.814l-4.852 13.072-4.83-13.072h-2.903v15.908h1.994v-13.094l4.853 13.094h1.705z"/></g></g><g style="display:inherit"><g style="display:block"><path d="m552.216 177.296 4.875-13.094v13.094h1.972v-15.908h-2.814l-4.852 13.072-4.83-13.072h-2.903v15.908h1.994v-13.094l4.852 13.094h1.706z"/></g></g><g style="display:inherit"><g style="display:block"><path d="m319.236 203.696 4.875-13.094v13.094h1.972v-15.908h-2.814l-4.852 13.072-4.83-13.072h-2.903v15.908h1.994v-13.094l4.853 13.094h1.705z"/></g></g><g style="display:inherit"><g style="display:block"><path d="m365.832 203.696 4.875-13.094v13.094h1.972v-15.908h-2.814l-4.852 13.072-4.83-13.072h-2.903v15.908h1.994v-13.094l4.852 13.094h1.706z"/></g></g><g style="display:inherit"><g style="display:block"><path d="m389.13 203.696 4.875-13.094v13.094h1.972v-15.908h-2.814l-4.852 13.072-4.83-13.072h-2.903v15.908h1.994v-13.094l4.852 13.094h1.706z"/></g></g><g style="display:inherit"><g style="display:block"><path d="m459.024 203.696 4.875-13.094v13.094h1.972v-15.908h-2.814l-4.852 13.072-4.83-13.072h-2.903v15.908h1.994v-13.094l4.852 13.094h1.706z"/></g></g><g style="display:inherit"><g style="display:block"><path d="m482.322 203.696 4.875-13.094v13.094h1.972v-15.908h-2.814l-4.852 13.072-4.83-13.072h-2.903v15.908h1.994v-13.094l4.852 13.094h1.706z"/></g></g><g style="display:inherit"><g style="display:block"><path d="m528.918 203.696 4.875-13.094v13.094h1.972v-15.908h-2.814l-4.852 13.072-4.83-13.072h-2.903v15.908h1.994v-13.094l4.852 13.094h1.706z"/></g></g><g style="display:inherit"><g style="display:block"><path d="m575.514 203.696 4.875-13.094v13.094h1.972v-15.908h-2.814l-4.852 13.072-4.83-13.072h-2.903v15.908h1.994v-13.094l4.853 13.094h1.705z"/></g></g><g style="display:inherit"><g style="display:block"><path d="m249.342 230.096 4.875-13.094v13.094h1.972v-15.908h-2.814l-4.852 13.072-4.83-13.072h-2.903v15.908h1.994v-13.094l4.852 13.094h1.706z"/></g></g><g style="display:inherit"><g style="display:block"><path d="m319.236 230.096 4.875-13.094v13.094h1.972v-15.908h-2.814l-4.852 13.072-4.83-13.072h-2.903v15.908h1.994v-13.094l4.853 13.094h1.705z"/></g></g><g style="display:inherit"><g style="display:block"><path d="m412.428 230.096 4.875-13.094v13.094h1.972v-15.908h-2.814l-4.852 13.072-4.83-13.072h-2.903v15.908h1.994v-13.094l4.852 13.094h1.706z"/></g></g><g style="display:inherit"><g style="display:block"><path d="m459.024 230.096 4.875-13.094v13.094h1.972v-15.908h-2.814l-4.852 13.072-4.83-13.072h-2.903v15.908h1.994v-13.094l4.853 13.094h1.705z"/></g></g><g style="display:inherit"><g style="display:block"><path d="m505.62 230.096 4.875-13.094v13.094h1.972v-15.908h-2.814L504.8 227.26l-4.83-13.072h-2.903v15.908h1.994v-13.094l4.853 13.094h1.705z"/></g></g><g style="display:inherit"><g style="display:block"><path d="m552.216 230.096 4.875-13.094v13.094h1.972v-15.908h-2.814l-4.852 13.072-4.83-13.072h-2.903v15.908h1.994v-13.094l4.852 13.094h1.706z"/></g></g><g style="display:inherit"><g style="display:block"><path d="m156.15 256.496 4.875-13.094v13.094h1.972v-15.908h-2.814l-4.852 13.072-4.83-13.072h-2.903v15.908h1.994v-13.094l4.852 13.094h1.706z"/></g></g><g style="display:inherit"><g style="display:block"><path d="m319.236 256.496 4.875-13.094v13.094h1.972v-15.908h-2.814l-4.852 13.072-4.83-13.072h-2.903v15.908h1.994v-13.094l4.853 13.094h1.705z"/></g></g><g style="display:inherit"><g style="display:block"><path d="m342.534 256.496 4.875-13.094v13.094h1.972v-15.908h-2.814l-4.852 13.072-4.83-13.072h-2.903v15.908h1.994v-13.094l4.853 13.094h1.705z"/></g></g><g style="display:inherit"><g style="display:block"><path d="m389.13 256.496 4.875-13.094v13.094h1.972v-15.908h-2.814l-4.852 13.072-4.83-13.072h-2.903v15.908h1.994v-13.094l4.852 13.094h1.706z"/></g></g><g style="display:inherit"><g style="display:block"><path d="m575.514 256.496 4.875-13.094v13.094h1.972v-15.908h-2.814l-4.852 13.072-4.83-13.072h-2.903v15.908h1.994v-13.094l4.853 13.094h1.705z"/></g></g><g style="display:inherit"><g style="display:block"><path d="m62.958 282.896 4.875-13.094v13.094h1.972v-15.908H66.99l-4.852 13.072-4.83-13.072h-2.903v15.908H56.4v-13.094l4.853 13.094h1.705z"/></g></g><g style="display:inherit"><g style="display:block"><path d="m156.15 282.896 4.875-13.094v13.094h1.972v-15.908h-2.814l-4.852 13.072-4.83-13.072h-2.903v15.908h1.994v-13.094l4.852 13.094h1.706z"/></g></g><g style="display:inherit"><g style="display:block"><path d="m179.448 282.896 4.875-13.094v13.094h1.972v-15.908h-2.814l-4.852 13.072-4.83-13.072h-2.903v15.908h1.994v-13.094l4.852 13.094h1.706z"/></g></g><g style="display:inherit"><g style="display:block"><path d="m365.832 282.896 4.875-13.094v13.094h1.972v-15.908h-2.814l-4.852 13.072-4.83-13.072h-2.903v15.908h1.994v-13.094l4.852 13.094h1.706z"/></g></g><g style="display:inherit"><g style="display:block"><path d="m389.13 282.896 4.875-13.094v13.094h1.972v-15.908h-2.814l-4.852 13.072-4.83-13.072h-2.903v15.908h1.994v-13.094l4.853 13.094h1.705z"/></g></g><g style="display:inherit"><g style="display:block"><path d="m505.62 282.896 4.875-13.094v13.094h1.972v-15.908h-2.814L504.8 280.06l-4.83-13.072h-2.903v15.908h1.994v-13.094l4.852 13.094h1.706z"/></g></g><g style="display:inherit"><g style="display:block"><path d="m365.832 309.296 4.875-13.094v13.094h1.972v-15.908h-2.814l-4.852 13.072-4.83-13.072h-2.903v15.908h1.994v-13.094l4.852 13.094h1.706z"/></g></g><g style="display:inherit"><g style="display:block"><path d="m389.13 309.296 4.875-13.094v13.094h1.972v-15.908h-2.814l-4.852 13.072-4.83-13.072h-2.903v15.908h1.994v-13.094l4.852 13.094h1.706z"/></g></g><g style="display:inherit"><g style="display:block"><path d="m505.62 309.296 4.875-13.094v13.094h1.972v-15.908h-2.814L504.8 306.46l-4.83-13.072h-2.903v15.908h1.994v-13.094l4.853 13.094h1.705z"/></g></g><g style="display:inherit"><g style="display:block"><path d="m552.216 309.296 4.875-13.094v13.094h1.972v-15.908h-2.814l-4.852 13.072-4.83-13.072h-2.903v15.908h1.994v-13.094l4.853 13.094h1.705z"/></g></g><g style="display:inherit"><g style="display:block"><path d="m575.514 309.296 4.875-13.094v13.094h1.972v-15.908h-2.814l-4.852 13.072-4.83-13.072h-2.903v15.908h1.994v-13.094l4.853 13.094h1.705z"/></g></g><g style="display:inherit"><g style="display:block"><path d="m342.534 335.696 4.875-13.094v13.094h1.972v-15.908h-2.814l-4.852 13.072-4.83-13.072h-2.903v15.908h1.994v-13.094l4.853 13.094h1.705z"/></g></g><g style="display:inherit"><g style="display:block"><path d="m435.726 335.696 4.875-13.094v13.094h1.972v-15.908h-2.814l-4.852 13.072-4.83-13.072h-2.903v15.908h1.994v-13.094l4.852 13.094h1.706z"/></g></g><g style="display:inherit"><g style="display:block"><path d="m482.322 335.696 4.875-13.094v13.094h1.972v-15.908h-2.814l-4.852 13.072-4.83-13.072h-2.903v15.908h1.994v-13.094l4.853 13.094h1.705z"/></g></g><g style="display:inherit"><g style="display:block"><path d="m552.216 335.696 4.875-13.094v13.094h1.972v-15.908h-2.814l-4.852 13.072-4.83-13.072h-2.903v15.908h1.994v-13.094l4.853 13.094h1.705z"/></g></g><g style="display:inherit"><g style="display:block"><path d="m575.514 335.696 4.875-13.094v13.094h1.972v-15.908h-2.814l-4.852 13.072-4.83-13.072h-2.903v15.908h1.994v-13.094l4.853 13.094h1.705z"/></g></g><g style="display:inherit"><g style="display:block"><path d="m295.938 362.096 4.875-13.094v13.094h1.972v-15.908h-2.814l-4.852 13.072-4.83-13.072h-2.903v15.908h1.994v-13.094l4.852 13.094h1.706z"/></g></g><g style="display:inherit"><g style="display:block"><path d="m342.534 362.096 4.875-13.094v13.094h1.972v-15.908h-2.814l-4.852 13.072-4.83-13.072h-2.903v15.908h1.994v-13.094l4.853 13.094h1.705z"/></g></g><g style="display:inherit"><g style="display:block"><path d="m459.024 362.096 4.875-13.094v13.094h1.972v-15.908h-2.814l-4.852 13.072-4.83-13.072h-2.903v15.908h1.994v-13.094l4.853 13.094h1.705z"/></g></g><g style="display:inherit"><g style="display:block"><path d="m389.13 388.496 4.875-13.094v13.094h1.972v-15.908h-2.814l-4.852 13.072-4.83-13.072h-2.903v15.908h1.994v-13.094l4.852 13.094h1.706z"/></g></g><g style="display:inherit"><g style="display:block"><path d="m412.428 388.496 4.875-13.094v13.094h1.972v-15.908h-2.814l-4.852 13.072-4.83-13.072h-2.903v15.908h1.994v-13.094l4.852 13.094h1.706z"/></g></g><g style="display:inherit"><g style="display:block"><path d="m435.726 388.496 4.875-13.094v13.094h1.972v-15.908h-2.814l-4.852 13.072-4.83-13.072h-2.903v15.908h1.994v-13.094l4.852 13.094h1.706z"/></g></g><g style="display:inherit"><g style="display:block"><path d="m459.024 388.496 4.875-13.094v13.094h1.972v-15.908h-2.814l-4.852 13.072-4.83-13.072h-2.903v15.908h1.994v-13.094l4.853 13.094h1.705z"/></g></g><g style="display:inherit"><g style="display:block"><path d="m552.216 388.496 4.875-13.094v13.094h1.972v-15.908h-2.814l-4.852 13.072-4.83-13.072h-2.903v15.908h1.994v-13.094l4.853 13.094h1.705z"/></g></g><g style="display:inherit"><g style="display:block"><path d="m249.342 414.896 4.875-13.094v13.094h1.972v-15.908h-2.814l-4.852 13.072-4.83-13.072h-2.903v15.908h1.994v-13.094l4.853 13.094h1.705z"/></g></g><g style="display:inherit"><g style="display:block"><path d="m272.64 414.896 4.875-13.094v13.094h1.972v-15.908h-2.814l-4.852 13.072-4.83-13.072h-2.903v15.908h1.994v-13.094l4.852 13.094h1.706z"/></g></g><g style="display:inherit"><g style="display:block"><path d="m295.938 414.896 4.875-13.094v13.094h1.972v-15.908h-2.814l-4.852 13.072-4.83-13.072h-2.903v15.908h1.994v-13.094l4.852 13.094h1.706z"/></g></g><g style="display:inherit"><g style="display:block"><path d="m389.13 414.896 4.875-13.094v13.094h1.972v-15.908h-2.814l-4.852 13.072-4.83-13.072h-2.903v15.908h1.994v-13.094l4.852 13.094h1.706z"/></g></g><g style="display:inherit"><g style="display:block"><path d="m412.428 414.896 4.875-13.094v13.094h1.972v-15.908h-2.814l-4.852 13.072-4.83-13.072h-2.903v15.908h1.994v-13.094l4.852 13.094h1.706z"/></g></g><g style="display:inherit"><g style="display:block"><path d="m435.726 414.896 4.875-13.094v13.094h1.972v-15.908h-2.814l-4.852 13.072-4.83-13.072h-2.903v15.908h1.994v-13.094l4.852 13.094h1.706z"/></g></g><g style="display:inherit"><g style="display:block"><path d="m505.62 414.896 4.875-13.094v13.094h1.972v-15.908h-2.814L504.8 412.06l-4.83-13.072h-2.903v15.908h1.994v-13.094l4.852 13.094h1.706z"/></g></g><g style="display:inherit"><g style="display:block"><path d="m552.216 414.896 4.875-13.094v13.094h1.972v-15.908h-2.814l-4.852 13.072-4.83-13.072h-2.903v15.908h1.994v-13.094l4.853 13.094h1.705z"/></g></g><g style="display:inherit"><g style="display:block"><path d="m272.64 441.296 4.875-13.094v13.094h1.972v-15.908h-2.814l-4.852 13.072-4.83-13.072h-2.903v15.908h1.994v-13.094l4.852 13.094h1.706z"/></g></g><g style="display:inherit"><g style="display:block"><path d="m365.832 441.296 4.875-13.094v13.094h1.972v-15.908h-2.814l-4.852 13.072-4.83-13.072h-2.903v15.908h1.994v-13.094l4.852 13.094h1.706z"/></g></g><g style="display:inherit"><g style="display:block"><path d="m389.13 441.296 4.875-13.094v13.094h1.972v-15.908h-2.814l-4.852 13.072-4.83-13.072h-2.903v15.908h1.994v-13.094l4.853 13.094h1.705z"/></g></g><g style="display:inherit"><g style="display:block"><path d="m482.322 441.296 4.875-13.094v13.094h1.972v-15.908h-2.814l-4.852 13.072-4.83-13.072h-2.903v15.908h1.994v-13.094l4.853 13.094h1.705z"/></g></g><g style="display:inherit"><g style="display:block"><path d="m552.216 441.296 4.875-13.094v13.094h1.972v-15.908h-2.814l-4.852 13.072-4.83-13.072h-2.903v15.908h1.994v-13.094l4.853 13.094h1.705z"/></g></g></g></svg>